<?xml version="1.0" encoding="UTF-8"?>
<svg xmlns="http://www.w3.org/2000/svg" version="1.1" viewBox="0 0 200 200">
  <defs>
    <style>
      .cls-1 {
        fill: #8997b2;
      }
    </style>
  </defs>
  <!-- Generator: Adobe Illustrator 28.6.0, SVG Export Plug-In . SVG Version: 1.2.0 Build 709)  -->
  <g>
    <g id="_图层_1" data-name="图层_1">
      <path class="cls-1" d="M146,99l32.6,82.8-11.6,4.6-26.8-68-26.8,68-11.6-4.6,32.6-82.8h11.6Z"/>
      <path class="cls-1" d="M160.6,141.8v12.5h-40.8v-12.5h40.8Z"/>
      <path class="cls-1" d="M80.4,43v48.5h12.5v-48.5h-12.5ZM39.8,91.6v-48.5h-12.5v48.5h12.5ZM53.9,27.5v79.6h12.5V27.5h-12.5Z"/>
      <path class="cls-1" d="M39.9,127c0,18.8,15.2,34.1,34,34.1h0v12.5s-.1,0-.1,0c-25.7,0-46.5-20.9-46.5-46.6,0,0,12.5,0,12.5,0ZM156.6,78.5c0-18.8-15.2-34.1-34-34.1h0v-12.5s.1,0,.1,0c25.7,0,46.5,20.9,46.5,46.6h0s-12.5,0-12.5,0Z"/>
    </g>
  </g>
</svg>