<?xml version="1.0" standalone="no"?><!DOCTYPE svg PUBLIC "-//W3C//DTD SVG 1.1//EN" "http://www.w3.org/Graphics/SVG/1.1/DTD/svg11.dtd"><svg t="1727960269803" class="icon" viewBox="0 0 1024 1024" version="1.1" xmlns="http://www.w3.org/2000/svg" p-id="2408" xmlns:xlink="http://www.w3.org/1999/xlink" width="200" height="200"><path d="M747.648 506.794667l166.997333 423.936-59.52 23.466666-137.258666-348.373333-137.216 348.373333-59.562667-23.466666L688.085333 506.794667z" fill="#323233" p-id="2409"></path><path d="M822.272 726.186667v64H613.504v-64z" fill="#323233" p-id="2410"></path><path d="M411.648 220.330667v248.533333h64V220.330667zM203.946667 468.864V220.330667h-64v248.533333zM275.797333 140.8v407.509333h64V140.8z" fill="#323233" p-id="2411"></path><path d="M204.245333 650.410667a174.293333 174.293333 0 0 0 174.08 174.506666h0.426667l0.085333 64h-0.64a238.293333 238.293333 0 0 1-237.952-238.592l64 0.085334zM801.536 402.133333a174.293333 174.293333 0 0 0-174.08-174.506666h-0.426667l-0.085333-64h0.597333a238.293333 238.293333 0 0 1 237.994667 238.592l-64-0.085334z" fill="#323233" p-id="2412"></path></svg>